<svg width="602" height="284" viewBox="0 0 602 284" fill="none" xmlns="http://www.w3.org/2000/svg">
<g clip-path="url(#clip0_35_1471)">
<path d="M596.211 284H5.78809V84.0408L66.5669 66.653L92.615 101.429L153.394 49.2653H248.903L301 23.1837L361.778 84.0408L422.557 31.8775L465.971 75.3469L544.115 5.7959L596.211 31.8775V284Z" fill="#9FCCFF"/>
<path d="M596.211 284H5.78809V197.061L66.5669 162.286L101.298 197.061L144.711 179.673L179.442 223.143L240.221 188.367H292.317L344.413 144.898L387.827 179.673L474.653 153.592L509.384 197.061L596.211 179.673V284Z" fill="#3F8DE5"/>
<path d="M179.346 223.722L144.519 180.253L101.202 197.641L100.912 197.448L66.471 162.865L5.9816 197.448L5.5957 196.675L66.664 161.706L101.395 196.482L144.905 179.094L145.098 179.384L179.539 222.563L240.125 187.884H292.125L344.414 144.318L387.924 179.094L474.847 153.012L509.578 196.578L596.115 179.19L596.308 180.156L509.192 197.544L508.999 197.351L474.461 154.171L387.731 180.253L344.414 145.478L292.51 188.85H240.318L179.346 223.722Z" fill="white"/>
<path d="M179.057 224.978L144.229 181.412L100.912 198.8L100.237 198.124L66.2781 164.121L5.69223 198.8L4.24512 196.288L66.857 160.45L101.684 195.322L145.194 177.935L145.869 178.804L179.828 221.307L239.836 186.918H291.835L344.414 143.062L388.117 178.031L475.136 151.95L475.619 152.433L509.964 195.516L596.887 178.031L597.466 180.929L508.806 198.607L508.227 197.931L474.172 155.234L387.538 181.316L387.152 180.929L344.414 146.733L292.8 189.816H240.607L179.057 224.978Z" fill="white"/>
<path d="M92.4224 102.878L66.1814 67.8122L6.07787 85.0068L5.49902 83.0748L66.9532 65.4939L92.8083 99.9796L153.008 48.2993H248.711L301.193 22.0245L361.875 82.6884L422.654 30.5252L465.971 73.9945L543.922 4.63672L596.597 31.0081L595.826 32.7469L544.308 6.95509L465.971 76.6993L422.461 33.2299L361.682 85.3932L300.807 24.3428L249.097 50.2313H153.78L92.4224 102.878Z" fill="white"/>
<path d="M7.23558 205.755C11.2317 205.755 14.4712 202.512 14.4712 198.51C14.4712 194.509 11.2317 191.265 7.23558 191.265C3.23948 191.265 0 194.509 0 198.51C0 202.512 3.23948 205.755 7.23558 205.755Z" fill="white"/>
<path d="M7.23542 203.533C10.006 203.533 12.2521 201.284 12.2521 198.51C12.2521 195.736 10.006 193.487 7.23542 193.487C4.46479 193.487 2.21875 195.736 2.21875 198.51C2.21875 201.284 4.46479 203.533 7.23542 203.533Z" fill="#14A0C1"/>
<path d="M65.1203 168.082C69.1164 168.082 72.3559 164.838 72.3559 160.837C72.3559 156.835 69.1164 153.592 65.1203 153.592C61.1242 153.592 57.8848 156.835 57.8848 160.837C57.8848 164.838 61.1242 168.082 65.1203 168.082Z" fill="white"/>
<path d="M65.1202 165.86C67.8908 165.86 70.1368 163.611 70.1368 160.837C70.1368 158.062 67.8908 155.813 65.1202 155.813C62.3496 155.813 60.1035 158.062 60.1035 160.837C60.1035 163.611 62.3496 165.86 65.1202 165.86Z" fill="#14A0C1"/>
<path d="M99.8508 202.857C103.847 202.857 107.086 199.614 107.086 195.612C107.086 191.611 103.847 188.367 99.8508 188.367C95.8547 188.367 92.6152 191.611 92.6152 195.612C92.6152 199.614 95.8547 202.857 99.8508 202.857Z" fill="white"/>
<path d="M99.8506 200.635C102.621 200.635 104.867 198.386 104.867 195.612C104.867 192.838 102.621 190.589 99.8506 190.589C97.08 190.589 94.834 192.838 94.834 195.612C94.834 198.386 97.08 200.635 99.8506 200.635Z" fill="#14A0C1"/>
<path d="M143.265 185.469C147.261 185.469 150.5 182.226 150.5 178.224C150.5 174.223 147.261 170.979 143.265 170.979C139.269 170.979 136.029 174.223 136.029 178.224C136.029 182.226 139.269 185.469 143.265 185.469Z" fill="white"/>
<path d="M143.265 183.247C146.035 183.247 148.281 180.998 148.281 178.224C148.281 175.45 146.035 173.201 143.265 173.201C140.494 173.201 138.248 175.45 138.248 178.224C138.248 180.998 140.494 183.247 143.265 183.247Z" fill="#14A0C1"/>
<path d="M177.995 228.939C181.991 228.939 185.231 225.695 185.231 221.694C185.231 217.693 181.991 214.449 177.995 214.449C173.999 214.449 170.76 217.693 170.76 221.694C170.76 225.695 173.999 228.939 177.995 228.939Z" fill="white"/>
<path d="M177.995 226.717C180.766 226.717 183.012 224.468 183.012 221.694C183.012 218.92 180.766 216.671 177.995 216.671C175.225 216.671 172.979 218.92 172.979 221.694C172.979 224.468 175.225 226.717 177.995 226.717Z" fill="#14A0C1"/>
<path d="M241.668 194.163C245.664 194.163 248.904 190.92 248.904 186.918C248.904 182.917 245.664 179.674 241.668 179.674C237.672 179.674 234.433 182.917 234.433 186.918C234.433 190.92 237.672 194.163 241.668 194.163Z" fill="white"/>
<path d="M241.668 191.942C244.439 191.942 246.685 189.693 246.685 186.918C246.685 184.144 244.439 181.895 241.668 181.895C238.897 181.895 236.651 184.144 236.651 186.918C236.651 189.693 238.897 191.942 241.668 191.942Z" fill="#14A0C1"/>
<path d="M293.765 194.163C297.761 194.163 301 190.92 301 186.918C301 182.917 297.761 179.674 293.765 179.674C289.769 179.674 286.529 182.917 286.529 186.918C286.529 190.92 289.769 194.163 293.765 194.163Z" fill="white"/>
<path d="M293.765 191.942C296.535 191.942 298.781 189.693 298.781 186.918C298.781 184.144 296.535 181.895 293.765 181.895C290.994 181.895 288.748 184.144 288.748 186.918C288.748 189.693 290.994 191.942 293.765 191.942Z" fill="#14A0C1"/>
<path d="M342.966 153.592C346.962 153.592 350.202 150.348 350.202 146.347C350.202 142.346 346.962 139.102 342.966 139.102C338.97 139.102 335.73 142.346 335.73 146.347C335.73 150.348 338.97 153.592 342.966 153.592Z" fill="white"/>
<path d="M342.966 151.37C345.737 151.37 347.983 149.121 347.983 146.347C347.983 143.573 345.737 141.324 342.966 141.324C340.195 141.324 337.949 143.573 337.949 146.347C337.949 149.121 340.195 151.37 342.966 151.37Z" fill="#14A0C1"/>
<path d="M386.38 185.469C390.376 185.469 393.616 182.226 393.616 178.224C393.616 174.223 390.376 170.979 386.38 170.979C382.384 170.979 379.145 174.223 379.145 178.224C379.145 182.226 382.384 185.469 386.38 185.469Z" fill="white"/>
<path d="M386.38 183.247C389.151 183.247 391.397 180.998 391.397 178.224C391.397 175.45 389.151 173.201 386.38 173.201C383.609 173.201 381.363 175.45 381.363 178.224C381.363 180.998 383.609 183.247 386.38 183.247Z" fill="#14A0C1"/>
<path d="M473.206 162.286C477.202 162.286 480.442 159.042 480.442 155.041C480.442 151.04 477.202 147.796 473.206 147.796C469.21 147.796 465.971 151.04 465.971 155.041C465.971 159.042 469.21 162.286 473.206 162.286Z" fill="white"/>
<path d="M473.206 160.064C475.977 160.064 478.223 157.815 478.223 155.041C478.223 152.267 475.977 150.018 473.206 150.018C470.436 150.018 468.189 152.267 468.189 155.041C468.189 157.815 470.436 160.064 473.206 160.064Z" fill="#14A0C1"/>
<path d="M510.831 202.857C514.827 202.857 518.067 199.614 518.067 195.612C518.067 191.611 514.827 188.367 510.831 188.367C506.835 188.367 503.596 191.611 503.596 195.612C503.596 199.614 506.835 202.857 510.831 202.857Z" fill="white"/>
<path d="M510.831 200.635C513.602 200.635 515.848 198.386 515.848 195.612C515.848 192.838 513.602 190.589 510.831 190.589C508.061 190.589 505.814 192.838 505.814 195.612C505.814 198.386 508.061 200.635 510.831 200.635Z" fill="#14A0C1"/>
<path d="M594.765 188.367C598.761 188.367 602 185.124 602 181.123C602 177.121 598.761 173.878 594.765 173.878C590.769 173.878 587.529 177.121 587.529 181.123C587.529 185.124 590.769 188.367 594.765 188.367Z" fill="white"/>
<path d="M594.765 186.146C597.535 186.146 599.781 183.897 599.781 181.122C599.781 178.348 597.535 176.099 594.765 176.099C591.994 176.099 589.748 178.348 589.748 181.122C589.748 183.897 591.994 186.146 594.765 186.146Z" fill="#14A0C1"/>
<path d="M7.23558 92.7347C11.2317 92.7347 14.4712 89.491 14.4712 85.4898C14.4712 81.4885 11.2317 78.2449 7.23558 78.2449C3.23948 78.2449 0 81.4885 0 85.4898C0 89.491 3.23948 92.7347 7.23558 92.7347Z" fill="white"/>
<path d="M7.23542 90.5128C10.006 90.5128 12.2521 88.2639 12.2521 85.4897C12.2521 82.7155 10.006 80.4666 7.23542 80.4666C4.46479 80.4666 2.21875 82.7155 2.21875 85.4897C2.21875 88.2639 4.46479 90.5128 7.23542 90.5128Z" fill="#4F7CAA"/>
<path d="M65.1203 75.347C69.1164 75.347 72.3559 72.1033 72.3559 68.1021C72.3559 64.1008 69.1164 60.8572 65.1203 60.8572C61.1242 60.8572 57.8848 64.1008 57.8848 68.1021C57.8848 72.1033 61.1242 75.347 65.1203 75.347Z" fill="white"/>
<path d="M65.1202 73.1251C67.8908 73.1251 70.1368 70.8762 70.1368 68.102C70.1368 65.3278 67.8908 63.0789 65.1202 63.0789C62.3496 63.0789 60.1035 65.3278 60.1035 68.102C60.1035 70.8762 62.3496 73.1251 65.1202 73.1251Z" fill="#4F7CAA"/>
<path d="M91.1682 107.224C95.1643 107.224 98.4038 103.981 98.4038 99.9795C98.4038 95.9783 95.1643 92.7346 91.1682 92.7346C87.1721 92.7346 83.9326 95.9783 83.9326 99.9795C83.9326 103.981 87.1721 107.224 91.1682 107.224Z" fill="white"/>
<path d="M91.168 105.003C93.9387 105.003 96.1847 102.754 96.1847 99.9794C96.1847 97.2052 93.9387 94.9563 91.168 94.9563C88.3974 94.9563 86.1514 97.2052 86.1514 99.9794C86.1514 102.754 88.3974 105.003 91.168 105.003Z" fill="#4F7CAA"/>
<path d="M154.841 57.9593C158.837 57.9593 162.077 54.7156 162.077 50.7144C162.077 46.7131 158.837 43.4695 154.841 43.4695C150.845 43.4695 147.605 46.7131 147.605 50.7144C147.605 54.7156 150.845 57.9593 154.841 57.9593Z" fill="white"/>
<path d="M154.841 55.7374C157.612 55.7374 159.858 53.4885 159.858 50.7143C159.858 47.9401 157.612 45.6912 154.841 45.6912C152.07 45.6912 149.824 47.9401 149.824 50.7143C149.824 53.4885 152.07 55.7374 154.841 55.7374Z" fill="#4F7CAA"/>
<path d="M299.553 31.8775C303.549 31.8775 306.789 28.6338 306.789 24.6326C306.789 20.6313 303.549 17.3877 299.553 17.3877C295.557 17.3877 292.317 20.6313 292.317 24.6326C292.317 28.6338 295.557 31.8775 299.553 31.8775Z" fill="white"/>
<path d="M299.553 29.6556C302.323 29.6556 304.569 27.4067 304.569 24.6325C304.569 21.8583 302.323 19.6094 299.553 19.6094C296.782 19.6094 294.536 21.8583 294.536 24.6325C294.536 27.4067 296.782 29.6556 299.553 29.6556Z" fill="#4F7CAA"/>
<path d="M250.351 57.9593C254.347 57.9593 257.586 54.7156 257.586 50.7144C257.586 46.7131 254.347 43.4695 250.351 43.4695C246.355 43.4695 243.115 46.7131 243.115 50.7144C243.115 54.7156 246.355 57.9593 250.351 57.9593Z" fill="white"/>
<path d="M250.351 55.7374C253.121 55.7374 255.367 53.4885 255.367 50.7143C255.367 47.9401 253.121 45.6912 250.351 45.6912C247.58 45.6912 245.334 47.9401 245.334 50.7143C245.334 53.4885 247.58 55.7374 250.351 55.7374Z" fill="#4F7CAA"/>
<path d="M360.331 89.8367C364.327 89.8367 367.567 86.5931 367.567 82.5918C367.567 78.5906 364.327 75.3469 360.331 75.3469C356.335 75.3469 353.096 78.5906 353.096 82.5918C353.096 86.5931 356.335 89.8367 360.331 89.8367Z" fill="white"/>
<path d="M360.331 87.6149C363.102 87.6149 365.348 85.3659 365.348 82.5917C365.348 79.8175 363.102 77.5686 360.331 77.5686C357.561 77.5686 355.314 79.8175 355.314 82.5917C355.314 85.3659 357.561 87.6149 360.331 87.6149Z" fill="#4F7CAA"/>
<path d="M421.111 40.5713C425.107 40.5713 428.346 37.3277 428.346 33.3264C428.346 29.3252 425.107 26.0815 421.111 26.0815C417.114 26.0815 413.875 29.3252 413.875 33.3264C413.875 37.3277 417.114 40.5713 421.111 40.5713Z" fill="white"/>
<path d="M421.11 38.3495C423.881 38.3495 426.127 36.1006 426.127 33.3264C426.127 30.5522 423.881 28.3032 421.11 28.3032C418.34 28.3032 416.094 30.5522 416.094 33.3264C416.094 36.1006 418.34 38.3495 421.11 38.3495Z" fill="#4F7CAA"/>
<path d="M464.524 81.1429C468.52 81.1429 471.759 77.8992 471.759 73.898C471.759 69.8967 468.52 66.6531 464.524 66.6531C460.528 66.6531 457.288 69.8967 457.288 73.898C457.288 77.8992 460.528 81.1429 464.524 81.1429Z" fill="white"/>
<path d="M464.524 78.921C467.294 78.921 469.54 76.6721 469.54 73.8979C469.54 71.1237 467.294 68.8748 464.524 68.8748C461.753 68.8748 459.507 71.1237 459.507 73.8979C459.507 76.6721 461.753 78.921 464.524 78.921Z" fill="#4F7CAA"/>
<path d="M545.563 14.4898C549.559 14.4898 552.798 11.2461 552.798 7.2449C552.798 3.24365 549.559 0 545.563 0C541.567 0 538.327 3.24365 538.327 7.2449C538.327 11.2461 541.567 14.4898 545.563 14.4898Z" fill="white"/>
<path d="M545.563 12.2679C548.333 12.2679 550.579 10.019 550.579 7.24481C550.579 4.47061 548.333 2.22168 545.563 2.22168C542.792 2.22168 540.546 4.47061 540.546 7.24481C540.546 10.019 542.792 12.2679 545.563 12.2679Z" fill="#4F7CAA"/>
<path d="M594.765 40.5713C598.761 40.5713 602 37.3277 602 33.3264C602 29.3252 598.761 26.0815 594.765 26.0815C590.769 26.0815 587.529 29.3252 587.529 33.3264C587.529 37.3277 590.769 40.5713 594.765 40.5713Z" fill="white"/>
<path d="M594.765 38.3495C597.535 38.3495 599.781 36.1006 599.781 33.3264C599.781 30.5522 597.535 28.3032 594.765 28.3032C591.994 28.3032 589.748 30.5522 589.748 33.3264C589.748 36.1006 591.994 38.3495 594.765 38.3495Z" fill="#4F7CAA"/>
</g>
<defs>
<clipPath id="clip0_35_1471">
<rect width="602" height="284" fill="white"/>
</clipPath>
</defs>
</svg>
