<svg width="199" height="41" viewBox="0 0 199 41" fill="none" xmlns="http://www.w3.org/2000/svg">
<path d="M56.486 32.6327H51.9897V12.4506H56.7857L63.9797 21.9995L66.7374 26.2467H67.0671L66.8573 22.1802V12.4506H71.3535V32.6327H66.5575L59.1537 22.9935L56.6059 19.1981H56.3061L56.486 22.9031V32.6327ZM80.4235 32.6327H75.3877L84.1703 12.4506H90.5849L99.4275 32.6327H94.2718L92.3834 28.1746H82.3419L80.4235 32.6327ZM85.9688 19.7101L84.0804 24.108H90.6449L88.7565 19.7101L87.5275 16.5774H87.1978L85.9688 19.7101ZM116.783 32.6327H110.368L102.035 12.4506H107.461L113.486 28.0541H113.785L119.721 12.4506H125.116L116.783 32.6327ZM133.566 32.6327H129.069V12.4506H140.16C145.106 12.4506 147.924 14.6496 147.924 18.5052C147.924 21.7886 146.035 23.7466 142.258 24.108V24.349C144.057 24.831 144.746 25.7949 145.496 27.2106L148.403 32.6327H143.188L140.43 27.3914C139.621 25.825 138.871 25.3129 136.533 25.3129H133.566V32.6327ZM133.566 16.5172V21.9091H140.13C142.258 21.9091 143.218 21.3066 143.218 19.1981C143.218 17.21 142.258 16.5172 140.13 16.5172H133.566ZM156.508 32.6327H151.472L160.255 12.4506H166.67L175.512 32.6327H170.356L168.468 28.1746H158.426L156.508 32.6327ZM162.053 19.7101L160.165 24.108H166.729L164.841 19.7101L163.612 16.5774H163.282L162.053 19.7101ZM188.671 32.9339C182.586 32.9339 179.169 30.5241 179.169 25.825V25.6443H183.665V26.1865C183.665 28.0541 184.595 28.8071 188.671 28.8071C192.268 28.8071 193.107 28.2649 193.107 26.9094C193.107 25.6744 192.418 25.2226 190.35 24.8611L184.714 24.0478C181.117 23.4755 178.989 21.6681 178.989 18.3848C178.989 15.3424 181.447 12.1494 188.192 12.1494C194.366 12.1494 197.244 15.011 197.244 19.2583V19.439H192.718V19.0173C192.718 17.0895 191.729 16.2762 187.742 16.2762C184.505 16.2762 183.515 16.9088 183.515 18.204C183.515 19.3788 184.175 19.8005 185.853 20.1017L191.489 21.0054C195.985 21.7284 197.604 23.9273 197.604 26.6986C197.604 29.9819 195.056 32.9339 188.671 32.9339Z" fill="black"/>
<mask id="mask0_54_3" style="mask-type:luminance" maskUnits="userSpaceOnUse" x="0" y="0" width="40" height="33">
<path d="M0 0H39.9665V32.1306H0V0Z" fill="white"/>
</mask>
<g mask="url(#mask0_54_3)">
<mask id="mask1_54_3" style="mask-type:luminance" maskUnits="userSpaceOnUse" x="0" y="0" width="40" height="33">
<path d="M19.5989 0.627179C19.5989 0.627179 18.0465 3.35194 17.4149 4.45312C16.0642 6.80558 14.3566 9.78225 13.1815 12.9246C12.1334 12.6147 10.1874 11.7836 8.9532 9.68896L8.2937 8.57083L7.85446 9.79321C7.80678 9.92048 6.73251 12.9645 6.97217 17.2247C7.02703 18.2075 7.15825 19.3028 7.41142 20.4714C4.42532 20.295 1.70716 18.4437 1.67847 18.4242L0.0805664 17.3166L0.759474 19.1433C3.26835 25.8925 6.87471 29.0438 9.45828 30.4991C12.1334 32.0052 14.279 32.0667 14.6068 32.0667H14.6482L16.1942 32.0298L15.0402 30.9943C10.8119 27.2082 8.5089 22.569 8.19455 17.2064C8.04813 14.7157 8.38826 12.6363 8.67218 11.4096C10.0334 13.0442 11.7241 13.7744 12.7743 14.0869C11.9439 16.645 11.5287 19.2718 11.9988 21.729C13.5827 30.0067 19.5925 31.384 19.8474 31.4391C15.3073 29.0485 13.7921 23.7545 13.7465 23.5905C13.7448 23.5875 13.7448 23.5858 13.7448 23.5858C13.5296 22.951 13.3435 22.2548 13.1984 21.4958C12.1591 16.0637 15.9575 9.44513 18.4722 5.06668C18.9305 4.2691 19.333 3.56522 19.6642 2.9487L19.774 2.74347L19.8811 2.53782L19.9191 2.46573L19.9832 2.34616L20.0474 2.46573L20.0854 2.53782L20.1921 2.74347L20.3022 2.9487C20.6334 3.56522 21.036 4.2691 21.4938 5.06668C24.009 9.44513 27.8073 16.0637 26.7681 21.4958C26.623 22.2548 26.4369 22.951 26.2217 23.5858C26.2217 23.5858 26.2217 23.5875 26.22 23.5905C26.1744 23.7545 24.6592 29.0485 20.1191 31.4391C20.374 31.384 26.3837 30.0067 27.9677 21.729C28.4377 19.2718 28.0226 16.645 27.1922 14.0869C28.2424 13.7744 29.9331 13.0442 31.2943 11.4096C31.5782 12.6363 31.9184 14.7157 31.7719 17.2064C31.4576 22.569 29.1546 27.2082 24.9263 30.9943L23.7723 32.0298L25.3183 32.0667H25.3596C25.6875 32.0667 27.8335 32.0052 30.5082 30.4991C33.0917 29.0438 36.6981 25.8925 39.207 19.1433L39.8859 17.3166L38.288 18.4242C38.2593 18.4437 35.5412 20.295 32.5551 20.4714C32.8082 19.3028 32.9394 18.2075 32.9943 17.2247C33.2339 12.9645 32.1597 9.92048 32.112 9.79321L31.6728 8.57083L31.0133 9.68896C29.7791 11.7836 27.8335 12.6147 26.785 12.9246C25.6098 9.78225 23.9023 6.80558 22.5516 4.45312C21.9199 3.35194 20.3676 0.627179 20.3676 0.627179L19.9832 0.0229492L19.5989 0.627179ZM32.2466 21.7103C34.2593 21.6798 36.1471 20.956 37.4091 20.3331C35.1137 25.5842 32.1534 28.1482 29.9821 29.389C28.9014 30.0067 27.9124 30.3612 27.128 30.5652C29.9377 27.6191 31.4559 24.5076 32.2466 21.7103ZM9.98442 29.389C7.81311 28.1482 4.85233 25.5842 2.55738 20.3331C3.81941 20.956 5.70719 21.6798 7.71986 21.7103C8.51057 24.5076 10.0287 27.6191 12.8384 30.5652C12.0541 30.3612 11.065 30.0067 9.98442 29.389Z" fill="white"/>
</mask>
<g mask="url(#mask1_54_3)">
<path d="M39.8859 0.0229492H0.0805664V32.0667H39.8859V0.0229492Z" fill="black"/>
</g>
</g>
<mask id="mask2_54_3" style="mask-type:luminance" maskUnits="userSpaceOnUse" x="0" y="32" width="40" height="7">
<path d="M30.1577 32.9532C34.5464 33.3819 37.4106 34.0849 37.4106 34.88C37.4106 36.1855 29.7008 37.2434 20.1897 37.2434C10.6791 37.2434 2.96939 36.1855 2.96939 34.88C2.96939 34.1141 5.6251 33.4336 9.74157 33.0019C9.73358 32.982 9.72725 32.9617 9.72009 32.9418C4.08416 33.4502 0.324219 34.3639 0.324219 35.4075C0.324219 37.0035 9.12642 38.2976 19.9847 38.2976C30.843 38.2976 39.6452 37.0035 39.6452 35.4075C39.6452 34.3588 35.8481 33.4408 30.1654 32.9341C30.1628 32.9404 30.1603 32.9473 30.1577 32.9532Z" fill="white"/>
</mask>
<g mask="url(#mask2_54_3)">
<path d="M39.6452 32.9341H0.324219V38.2976H39.6452V32.9341Z" fill="black"/>
</g>
</svg>
